<svg width="118" height="386" viewBox="0 0 118 386" fill="none" xmlns="http://www.w3.org/2000/svg">
<path d="M1.96875 349.742C18.375 343.492 26.9036 325.979 27.5547 297.203V254.82C27.5547 225.523 39.6641 204.951 63.8828 193.102C39.6641 181.253 27.5547 160.68 27.5547 131.383V89C26.9036 60.224 18.375 42.7109 1.96875 36.4609L14.2734 2.08594C37.5807 8.59635 55.0938 19.2734 66.8125 34.1172C78.5312 48.8307 84.4557 68.1667 84.5859 92.125V131.383C84.5859 157.815 95.1328 171.031 116.227 171.031V215.367C95.1328 215.367 84.5859 228.453 84.5859 254.625V296.227C83.6745 342.06 60.237 371.422 14.2734 384.312L1.96875 349.742Z" fill="#3430BD"/>
</svg>
