<svg width="361" height="219" viewBox="0 0 361 219" fill="none" xmlns="http://www.w3.org/2000/svg">
<path d="M139.322 175.156H68.8633L56.5586 215H1.62695L79.8496 1.71875H128.189L206.998 215H151.773L139.322 175.156ZM81.168 135.459H127.018L104.02 61.4844L81.168 135.459ZM309.684 215C307.926 211.777 306.363 207.041 304.996 200.791C295.914 212.217 283.219 217.93 266.91 217.93C251.969 217.93 239.273 213.438 228.824 204.453C218.375 195.371 213.15 183.994 213.15 170.322C213.15 153.135 219.498 140.146 232.193 131.357C244.889 122.568 263.346 118.174 287.564 118.174H302.799V109.824C302.799 95.2734 296.5 87.998 283.902 87.998C272.184 87.998 266.324 93.7598 266.324 105.283H216.959C216.959 89.9512 223.453 77.5 236.441 67.9297C249.527 58.3594 266.178 53.5742 286.393 53.5742C306.607 53.5742 322.574 58.5059 334.293 68.3691C346.012 78.2324 352.018 91.7578 352.311 108.945V179.111C352.506 193.662 354.752 204.795 359.049 212.51V215H309.684ZM278.775 182.773C284.928 182.773 290.006 181.455 294.01 178.818C298.111 176.182 301.041 173.203 302.799 169.883V144.541H288.443C271.256 144.541 262.662 152.256 262.662 167.686C262.662 172.178 264.176 175.84 267.203 178.672C270.23 181.406 274.088 182.773 278.775 182.773Z" fill="#3430BD"/>
</svg>
