<svg width="118" height="386" viewBox="0 0 118 386" fill="none" xmlns="http://www.w3.org/2000/svg">
<path d="M103.727 384.312L103.456 385.275L104.356 385.528L104.669 384.648L103.727 384.312ZM1.77344 215.367H0.773438V216.367H1.77344V215.367ZM1.77344 171.031V170.031H0.773438V171.031H1.77344ZM33.4141 90.3672L32.4142 90.3505L32.4141 90.3589V90.3672H33.4141ZM51.5781 33.5312L50.8048 32.8972L50.8014 32.9015L51.5781 33.5312ZM103.727 2.08594L104.668 1.74892L104.353 0.868435L103.453 1.124L103.727 2.08594ZM116.031 36.4609L116.387 37.3954L117.303 37.0466L116.973 36.1239L116.031 36.4609ZM90.4453 89L89.4456 88.9774L89.4453 88.9887V89H90.4453ZM54.3125 193.102L53.8672 192.206L52.0667 193.102L53.8672 193.997L54.3125 193.102ZM90.4453 297.203H89.4453V297.214L89.4456 297.226L90.4453 297.203ZM116.031 349.742L116.973 350.078L117.301 349.156L116.387 348.808L116.031 349.742ZM103.997 383.35C80.7093 376.816 63.3383 366.058 51.7829 351.132C40.2295 336.209 34.4141 317.022 34.4141 293.492H32.4141C32.4141 317.358 38.3174 337.006 50.2015 352.356C62.0835 367.704 79.8689 378.658 103.456 385.275L103.997 383.35ZM34.4141 293.492V254.82H32.4141V293.492H34.4141ZM34.4141 254.82C34.4141 241.562 31.7602 231.433 26.284 224.605C20.7741 217.734 12.5402 214.367 1.77344 214.367V216.367C12.1005 216.367 19.6869 219.576 24.7238 225.856C29.7945 232.179 32.4141 241.777 32.4141 254.82H34.4141ZM2.77344 215.367V171.031H0.773438V215.367H2.77344ZM1.77344 172.031C12.5419 172.031 20.7762 168.647 26.2855 161.743C31.7605 154.882 34.4141 144.705 34.4141 131.383H32.4141C32.4141 144.493 29.7942 154.14 24.7223 160.495C19.6848 166.808 12.0988 170.031 1.77344 170.031V172.031ZM34.4141 131.383V90.3672H32.4141V131.383H34.4141ZM34.4139 90.3839C34.8018 67.1108 40.8102 48.3996 52.3549 34.161L50.8014 32.9015C38.9086 47.5692 32.8076 66.7486 32.4142 90.3505L34.4139 90.3839ZM52.3515 34.1652C64.0396 19.9083 81.2255 9.51785 104 3.04787L103.453 1.124C80.3943 7.67486 62.8146 18.248 50.8048 32.8973L52.3515 34.1652ZM102.785 2.42295L115.09 36.798L116.973 36.1239L104.668 1.74892L102.785 2.42295ZM115.675 35.5265C98.6765 42.0022 90.0993 60.0842 89.4456 88.9774L91.4451 89.0226C92.0934 60.3637 100.573 43.4197 116.387 37.3954L115.675 35.5265ZM89.4453 89V131.383H91.4453V89H89.4453ZM89.4453 131.383C89.4453 145.828 86.4635 158.08 80.5491 168.182C74.6376 178.28 65.7604 186.292 53.8672 192.206L54.7578 193.997C66.9532 187.932 76.1424 179.668 82.2751 169.193C88.405 158.722 91.4453 146.104 91.4453 131.383H89.4453ZM53.8672 193.997C65.7596 199.911 74.6367 207.939 80.5484 218.068C86.4632 228.203 89.4453 240.504 89.4453 255.016H91.4453C91.4453 240.23 88.4053 227.563 82.2758 217.06C76.1433 206.552 66.954 198.271 54.7578 192.206L53.8672 193.997ZM89.4453 255.016V297.203H91.4453V255.016H89.4453ZM89.4456 297.226C90.0993 326.119 98.6765 344.201 115.675 350.677L116.387 348.808C100.573 342.783 92.0934 325.839 91.4451 297.181L89.4456 297.226ZM115.089 349.407L102.784 383.977L104.669 384.648L116.973 350.078L115.089 349.407Z" fill="#3430BD"/>
</svg>
