<svg width="60" height="271" viewBox="0 0 60 271" fill="none" xmlns="http://www.w3.org/2000/svg">
<path d="M14.2969 22.5938C14.2969 16.3438 16.1198 11.1354 19.7656 6.96875C23.5417 2.80208 29.1406 0.71875 36.5625 0.71875C43.9844 0.71875 49.5833 2.80208 53.3594 6.96875C57.2656 11.1354 59.2188 16.3438 59.2188 22.5938C59.2188 28.5833 57.2656 33.5964 53.3594 37.6328C49.5833 41.6693 43.9844 43.6875 36.5625 43.6875C29.1406 43.6875 23.5417 41.6693 19.7656 37.6328C16.1198 33.5964 14.2969 28.5833 14.2969 22.5938ZM21.1328 270.641L0.625 256.578C12.8646 239.521 19.2448 221.943 19.7656 203.844V171.227H55.1172V199.547C55.1172 212.698 51.862 225.849 45.3516 239C38.9714 252.151 30.8984 262.698 21.1328 270.641Z" fill="#3430BD"/>
</svg>
