<svg width="480" height="291" viewBox="0 0 480 291" fill="none" xmlns="http://www.w3.org/2000/svg">
<path d="M185.43 232.875L186.384 232.577L186.165 231.875H185.43V232.875ZM91.4844 232.875V231.875H90.7466L90.5289 232.58L91.4844 232.875ZM75.0781 286V287H75.8159L76.0336 286.295L75.0781 286ZM1.83594 286L0.897089 285.656L0.404045 287H1.83594V286ZM106.133 1.625V0.625H105.434L105.194 1.28067L106.133 1.625ZM170.586 1.625L171.524 1.2784L171.283 0.625H170.586V1.625ZM275.664 286V287H277.1L276.602 285.653L275.664 286ZM202.031 286L201.077 286.298L201.296 287H202.031V286ZM107.891 179.945L106.935 179.65L106.535 180.945H107.891V179.945ZM169.023 179.945V180.945H170.382L169.978 179.648L169.023 179.945ZM138.359 81.3125L139.314 81.0156L138.356 77.9343L137.404 81.0173L138.359 81.3125ZM185.43 231.875H91.4844V233.875H185.43V231.875ZM90.5289 232.58L74.1227 285.705L76.0336 286.295L92.4398 233.17L90.5289 232.58ZM75.0781 285H1.83594V287H75.0781V285ZM2.77479 286.344L107.072 1.96933L105.194 1.28067L0.897089 285.656L2.77479 286.344ZM106.133 2.625H170.586V0.625H106.133V2.625ZM169.648 1.9716L274.726 286.347L276.602 285.653L171.524 1.2784L169.648 1.9716ZM275.664 285H202.031V287H275.664V285ZM202.986 285.702L186.384 232.577L184.475 233.173L201.077 286.298L202.986 285.702ZM107.891 180.945H169.023V178.945H107.891V180.945ZM169.978 179.648L139.314 81.0156L137.404 81.6094L168.069 180.242L169.978 179.648ZM137.404 81.0173L106.935 179.65L108.846 180.24L139.315 81.6077L137.404 81.0173ZM412.578 286L411.7 286.479L411.984 287H412.578V286ZM406.328 267.055L407.305 266.841L406.855 264.785L405.545 266.432L406.328 267.055ZM304.766 271.938L304.11 272.692L304.114 272.696L304.766 271.938ZM309.258 174.477L308.689 173.654L309.258 174.477ZM403.398 156.898V157.898H404.398V156.898H403.398ZM354.766 139.711V140.711H355.766V139.711H354.766ZM288.945 139.711H287.945V140.711H288.945V139.711ZM314.922 89.9062L314.332 89.0991L314.329 89.1012L314.922 89.9062ZM445.391 90.4922L446.035 89.7271L445.391 90.4922ZM469.414 144.594H470.414V144.585L470.414 144.577L469.414 144.594ZM469.414 238.148H468.414L468.414 238.162L469.414 238.148ZM478.398 282.68H479.398V282.42L479.272 282.193L478.398 282.68ZM478.398 286V287H479.398V286H478.398ZM391.68 237.758L391.139 236.917L391.13 236.923L391.68 237.758ZM403.398 225.844L404.282 226.312L404.398 226.092V225.844H403.398ZM403.398 192.055H404.398V191.055H403.398V192.055ZM355.938 237.562L355.254 238.293L355.261 238.299L355.267 238.305L355.938 237.562ZM413.456 285.521C411.179 281.347 409.12 275.139 407.305 266.841L405.351 267.268C407.182 275.637 409.289 282.059 411.7 286.479L413.456 285.521ZM405.545 266.432C393.65 281.398 377.027 288.906 355.547 288.906V290.906C377.556 290.906 394.788 283.18 407.111 267.677L405.545 266.432ZM355.547 288.906C335.842 288.906 319.153 282.989 305.418 271.179L304.114 272.696C318.243 284.845 335.408 290.906 355.547 290.906V288.906ZM305.422 271.183C291.705 259.261 284.867 244.365 284.867 226.43H282.867C282.867 244.953 289.962 260.396 304.11 272.692L305.422 271.183ZM284.867 226.43C284.867 203.798 293.204 186.807 309.827 175.299L308.689 173.654C291.458 185.583 282.867 203.228 282.867 226.43H284.867ZM309.827 175.299C326.516 163.745 350.891 157.898 383.086 157.898V155.898C350.698 155.898 325.853 161.771 308.689 173.654L309.827 175.299ZM383.086 157.898H403.398V155.898H383.086V157.898ZM404.398 156.898V145.766H402.398V156.898H404.398ZM404.398 145.766C404.398 135.943 402.276 128.39 397.856 123.285C393.412 118.152 386.796 115.664 378.203 115.664V117.664C386.407 117.664 392.389 120.026 396.344 124.594C400.322 129.189 402.398 136.187 402.398 145.766H404.398ZM378.203 115.664C370.241 115.664 364.084 117.622 359.924 121.713C355.76 125.807 353.766 131.87 353.766 139.711H355.766C355.766 132.187 357.677 126.727 361.326 123.139C364.978 119.548 370.541 117.664 378.203 117.664V115.664ZM354.766 138.711H288.945V140.711H354.766V138.711ZM289.945 139.711C289.945 119.605 298.438 103.295 315.515 90.7113L314.329 89.1012C296.771 102.039 287.945 118.932 287.945 139.711H289.945ZM315.512 90.7134C332.75 78.1064 354.729 71.7656 381.523 71.7656V69.7656C354.411 69.7656 331.989 76.1853 314.332 89.0991L315.512 90.7134ZM381.523 71.7656C408.317 71.7656 429.353 78.3007 444.747 91.2573L446.035 89.7271C430.179 76.3816 408.636 69.7656 381.523 69.7656V71.7656ZM444.747 91.2573C460.122 104.198 468.028 121.944 468.414 144.611L470.414 144.577C470.019 121.41 461.909 103.088 446.035 89.7271L444.747 91.2573ZM468.414 144.594V238.148H470.414V144.594H468.414ZM468.414 238.162C468.676 257.633 471.679 272.67 477.525 283.166L479.272 282.193C473.66 272.117 470.673 257.465 470.414 238.135L468.414 238.162ZM477.398 282.68V286H479.398V282.68H477.398ZM478.398 285H412.578V287H478.398V285ZM371.367 244.031C379.711 244.031 386.687 242.243 392.23 238.593L391.13 236.923C385.995 240.304 379.43 242.031 371.367 242.031V244.031ZM392.22 238.599C397.792 235.017 401.838 230.929 404.282 226.312L402.515 225.376C400.272 229.612 396.505 233.467 391.139 236.917L392.22 238.599ZM404.398 225.844V192.055H402.398V225.844H404.398ZM403.398 191.055H384.258V193.055H403.398V191.055ZM384.258 191.055C372.67 191.055 363.793 193.653 357.809 199.025C351.803 204.416 348.883 212.444 348.883 222.914H350.883C350.883 212.811 353.691 205.409 359.145 200.514C364.618 195.6 372.929 193.055 384.258 193.055V191.055ZM348.883 222.914C348.883 229.155 350.998 234.311 355.254 238.293L356.621 236.832C352.804 233.262 350.883 228.653 350.883 222.914H348.883ZM355.267 238.305C359.515 242.141 364.909 244.031 371.367 244.031V242.031C365.325 242.031 360.433 240.276 356.608 236.82L355.267 238.305Z" fill="#3430BD"/>
</svg>
